<svg width="25" height="24" viewBox="0 0 25 24" fill="none" xmlns="http://www.w3.org/2000/svg">
<path d="M23 2.24717L16.9948 2.24719V0.752441C16.9948 0.338066 16.6591 0.00244141 16.2448 0.00244141C15.8304 0.00244141 15.4948 0.338066 15.4948 0.752441V2.24682H9.49475V0.752441C9.49475 0.338066 9.15913 0.00244141 8.74475 0.00244141C8.33038 0.00244141 7.99475 0.338066 7.99475 0.752441V2.24682H2C1.17162 2.24682 0.5 2.91844 0.5 3.74682V22.4968C0.5 23.3252 1.17162 23.9968 2 23.9968H23C23.8284 23.9968 24.5 23.3252 24.5 22.4968V3.74682C24.5 2.91879 23.8284 2.24717 23 2.24717ZM23 22.4968H2V3.74682H7.99475V4.50244C7.99475 4.91679 8.33038 5.25244 8.74475 5.25244C9.15913 5.25244 9.49475 4.91679 9.49475 4.50244V3.74719H15.4948V4.50282C15.4948 4.91719 15.8304 5.25282 16.2448 5.25282C16.6591 5.25282 16.9948 4.91719 16.9948 4.50282V3.74719H23V22.4968ZM17.75 11.9972H19.25C19.664 11.9972 20 11.6612 20 11.2472V9.74717C20 9.33317 19.664 8.99717 19.25 8.99717H17.75C17.336 8.99717 17 9.33317 17 9.74717V11.2472C17 11.6612 17.336 11.9972 17.75 11.9972ZM17.75 17.9968H19.25C19.664 17.9968 20 17.6612 20 17.2468V15.7468C20 15.3328 19.664 14.9968 19.25 14.9968H17.75C17.336 14.9968 17 15.3328 17 15.7468V17.2468C17 17.6615 17.336 17.9968 17.75 17.9968ZM13.25 14.9968H11.75C11.336 14.9968 11 15.3328 11 15.7468V17.2468C11 17.6612 11.336 17.9968 11.75 17.9968H13.25C13.664 17.9968 14 17.6612 14 17.2468V15.7468C14 15.3332 13.664 14.9968 13.25 14.9968ZM13.25 8.99717H11.75C11.336 8.99717 11 9.33317 11 9.74717V11.2472C11 11.6612 11.336 11.9972 11.75 11.9972H13.25C13.664 11.9972 14 11.6612 14 11.2472V9.74717C14 9.33279 13.664 8.99717 13.25 8.99717ZM7.25 8.99717H5.75C5.336 8.99717 5 9.33317 5 9.74717V11.2472C5 11.6612 5.336 11.9972 5.75 11.9972H7.25C7.664 11.9972 8 11.6612 8 11.2472V9.74717C8 9.33279 7.664 8.99717 7.25 8.99717ZM7.25 14.9968H5.75C5.336 14.9968 5 15.3328 5 15.7468V17.2468C5 17.6612 5.336 17.9968 5.75 17.9968H7.25C7.664 17.9968 8 17.6612 8 17.2468V15.7468C8 15.3332 7.664 14.9968 7.25 14.9968Z" fill="black"/>
</svg>
