<svg width="25" height="24" viewBox="0 0 25 24" fill="none" xmlns="http://www.w3.org/2000/svg">
<path fill-rule="evenodd" clip-rule="evenodd" d="M11.6516 2.75173C11.8766 2.52677 12.1818 2.40039 12.5 2.40039C12.8182 2.40039 13.1234 2.52677 13.3484 2.75173L21.7484 11.1517C21.9162 11.3196 22.0304 11.5334 22.0767 11.7661C22.123 11.9988 22.0992 12.2401 22.0084 12.4593C21.9176 12.6786 21.7639 12.866 21.5666 12.9978C21.3693 13.1297 21.1373 13.2001 20.9 13.2001H19.7V20.4001C19.7 20.7184 19.5736 21.0236 19.3485 21.2487C19.1235 21.4737 18.8183 21.6001 18.5 21.6001H16.1C15.7818 21.6001 15.4765 21.4737 15.2515 21.2487C15.0264 21.0236 14.9 20.7184 14.9 20.4001V16.8001C14.9 16.4819 14.7736 16.1766 14.5485 15.9516C14.3235 15.7266 14.0183 15.6001 13.7 15.6001H11.3C10.9818 15.6001 10.6765 15.7266 10.4515 15.9516C10.2264 16.1766 10.1 16.4819 10.1 16.8001V20.4001C10.1 20.7184 9.97358 21.0236 9.74854 21.2487C9.5235 21.4737 9.21827 21.6001 8.90001 21.6001H6.50001C6.18175 21.6001 5.87653 21.4737 5.65148 21.2487C5.42644 21.0236 5.30001 20.7184 5.30001 20.4001V13.2001H4.10001C3.86271 13.2001 3.63075 13.1297 3.43346 12.9978C3.23617 12.866 3.0824 12.6786 2.9916 12.4593C2.9008 12.2401 2.87703 11.9988 2.92331 11.7661C2.96959 11.5334 3.08384 11.3196 3.25161 11.1517L11.6516 2.75173Z" fill="#DA0DBF"/>
</svg>
