<svg width="25" height="24" viewBox="0 0 25 24" fill="none" xmlns="http://www.w3.org/2000/svg">
<path d="M13.7937 0C14.1465 0 14.4621 0.2196 14.5809 0.5484L15.4281 2.8968C15.7313 2.972 15.9929 3.0488 16.2129 3.1272C16.4529 3.2128 16.7649 3.3448 17.1489 3.5232L19.1217 2.4792C19.2826 2.3935 19.4671 2.36248 19.6472 2.39084C19.8273 2.4192 19.9933 2.50539 20.1201 2.6364L21.8553 4.4304C22.0857 4.6692 22.1505 5.0184 22.0209 5.3232L21.0957 7.4916C21.2485 7.7732 21.3717 8.0148 21.4653 8.2164C21.5661 8.4348 21.6909 8.7388 21.8397 9.1284L23.9961 10.0524C24.3201 10.1904 24.5205 10.5144 24.4989 10.8612L24.3405 13.3512C24.3296 13.513 24.2716 13.668 24.1734 13.7971C24.0753 13.9261 23.9415 14.0235 23.7885 14.0772L21.7461 14.8032C21.6877 15.0848 21.6261 15.3272 21.5613 15.5304C21.4564 15.8453 21.3371 16.1553 21.2037 16.4592L22.2297 18.7272C22.3027 18.8864 22.3225 19.065 22.2862 19.2363C22.2499 19.4077 22.1594 19.5628 22.0281 19.6788L20.0769 21.4212C19.9486 21.5359 19.7882 21.6085 19.6174 21.6291C19.4466 21.6497 19.2735 21.6173 19.1217 21.5364L17.1105 20.4708C16.7961 20.6381 16.4715 20.7852 16.1385 20.9112L15.2601 21.24L14.4801 23.4C14.4217 23.5578 14.3173 23.6945 14.1804 23.7922C14.0434 23.89 13.8803 23.9444 13.7121 23.9484L11.4321 24C11.2593 24.004 11.0896 23.9547 10.9459 23.8587C10.8022 23.7627 10.6917 23.6247 10.6293 23.4636L9.71007 21.0312C9.39653 20.9238 9.08601 20.8078 8.77887 20.6832C8.52774 20.5745 8.28039 20.4572 8.03727 20.3316L5.75727 21.306C5.6071 21.3704 5.4414 21.3896 5.28048 21.3613C5.11956 21.3329 4.9704 21.2582 4.85127 21.1464L3.16407 19.5636C3.03799 19.4466 2.95211 19.2927 2.91871 19.124C2.8853 18.9552 2.90608 18.7802 2.97807 18.624L3.95847 16.488C3.82855 16.2348 3.70767 15.977 3.59607 15.7152C3.46608 15.3946 3.34603 15.07 3.23607 14.742L1.08807 14.088C0.913476 14.0352 0.761188 13.9263 0.654862 13.7781C0.548537 13.6299 0.494124 13.4507 0.500075 13.2684L0.584075 10.9632C0.590315 10.8129 0.637405 10.6671 0.720284 10.5415C0.803164 10.4159 0.918699 10.3153 1.05447 10.2504L3.30807 9.168C3.41207 8.7856 3.50407 8.4864 3.58407 8.2704C3.6973 7.9803 3.82302 7.69523 3.96087 7.416L2.98407 5.352C2.90938 5.19538 2.88657 5.01902 2.91893 4.84854C2.9513 4.67807 3.03717 4.52235 3.16407 4.404L4.84887 2.8128C4.96682 2.70114 5.11461 2.62608 5.27434 2.59668C5.43408 2.56729 5.59891 2.58484 5.74887 2.6472L8.02647 3.588C8.27767 3.4208 8.50647 3.2832 8.71287 3.1752C8.95847 3.0456 9.28807 2.9072 9.70167 2.76L10.4937 0.5508C10.5528 0.38951 10.66 0.250233 10.8008 0.151745C10.9415 0.0532578 11.1091 0.000295931 11.2809 0L13.7937 0ZM13.2057 1.6524H11.8701L11.1441 3.6852C11.1008 3.80342 11.0316 3.91042 10.9415 3.99828C10.8513 4.08614 10.7426 4.15262 10.6233 4.1928C10.1001 4.3668 9.72207 4.5168 9.50127 4.6332C9.26607 4.7572 8.97007 4.9452 8.61327 5.1972C8.49716 5.2791 8.36217 5.3302 8.22092 5.34574C8.07968 5.36127 7.93681 5.34071 7.80567 5.286L5.60967 4.38L4.75407 5.1888L5.64567 7.0728C5.69905 7.18489 5.72615 7.30769 5.7249 7.43183C5.72365 7.55598 5.6941 7.6782 5.63847 7.7892C5.39847 8.2704 5.23647 8.6256 5.15487 8.844C5.02921 9.2074 4.92109 9.57662 4.83087 9.9504C4.80072 10.0673 4.74536 10.1763 4.66866 10.2696C4.59196 10.3628 4.49578 10.4382 4.38687 10.4904L2.23887 11.5212L2.19567 12.6972L4.13967 13.2876C4.39767 13.3656 4.60167 13.5636 4.68687 13.818C4.87967 14.3956 5.03167 14.818 5.14287 15.0852C5.28916 15.4233 5.45093 15.7544 5.62767 16.0776C5.68747 16.1888 5.72065 16.3123 5.72461 16.4385C5.72856 16.5647 5.70319 16.6901 5.65047 16.8048L4.74927 18.7704L5.60247 19.572L7.74087 18.6576C7.856 18.6081 7.98073 18.585 8.10594 18.59C8.23114 18.595 8.35365 18.6279 8.46447 18.6864C8.90447 18.9168 9.22808 19.076 9.43527 19.164C9.64527 19.2516 10.0473 19.398 10.6305 19.5972C10.746 19.6372 10.8513 19.702 10.9392 19.787C11.0271 19.872 11.0954 19.9751 11.1393 20.0892L11.9889 22.3344L13.1001 22.3104L13.8165 20.3256C13.858 20.2127 13.9233 20.11 14.008 20.0245C14.0927 19.9389 14.1947 19.8726 14.3073 19.83L15.5517 19.3644C15.8669 19.2484 16.2473 19.0644 16.6929 18.8124C16.816 18.7429 16.9547 18.7055 17.096 18.7038C17.2374 18.7022 17.3769 18.7362 17.5017 18.8028L19.3941 19.8048L20.4585 18.8556L19.5273 16.8C19.4794 16.6945 19.4545 16.58 19.4543 16.4641C19.4541 16.3483 19.4785 16.2337 19.5261 16.128C19.7445 15.6396 19.8921 15.2712 19.9665 15.036C20.0409 14.804 20.1149 14.474 20.1885 14.046C20.2136 13.9009 20.2771 13.7651 20.3722 13.6527C20.4673 13.5403 20.5907 13.4552 20.7297 13.4064L22.7073 12.7044L22.7937 11.3364L20.8497 10.5036C20.7465 10.4591 20.6533 10.3943 20.5755 10.3131C20.4978 10.2319 20.4372 10.1359 20.3973 10.0308C20.2589 9.64818 20.1076 9.27037 19.9437 8.898C19.7887 8.57367 19.6206 8.25581 19.4397 7.9452C19.3768 7.83552 19.3403 7.71274 19.333 7.58655C19.3257 7.46035 19.3479 7.33418 19.3977 7.218L20.2677 5.178L19.3509 4.23L17.5653 5.1756C17.4488 5.2377 17.3193 5.27148 17.1873 5.27419C17.0554 5.2769 16.9246 5.24847 16.8057 5.1912C16.4269 5.00227 16.0392 4.83168 15.6441 4.68C15.3075 4.56634 14.964 4.47416 14.6157 4.404C14.4778 4.37408 14.3497 4.30992 14.2431 4.21743C14.1366 4.12494 14.0551 4.00711 14.0061 3.8748L13.2057 1.6524ZM12.5289 6.7692C15.4509 6.7692 17.8209 9.1128 17.8209 12.0024C17.8209 14.892 15.4509 17.2344 12.5289 17.2344C9.60687 17.2344 7.23687 14.892 7.23687 12.0024C7.23687 9.1128 9.60567 6.7704 12.5289 6.7704M12.5289 8.424C10.5285 8.424 8.90727 10.026 8.90727 12.0036C8.90727 13.9812 10.5285 15.5844 12.5289 15.5844C14.5293 15.5844 16.1493 13.9812 16.1493 12.0036C16.1493 10.026 14.5293 8.424 12.5289 8.424Z" fill="black"/>
</svg>
