<svg width="375" height="48" viewBox="0 0 375 48" fill="none" xmlns="http://www.w3.org/2000/svg">
<rect width="375" height="48" fill="white"/>
<path fill-rule="evenodd" clip-rule="evenodd" d="M62.6516 14.7517C62.8766 14.5268 63.1818 14.4004 63.5 14.4004C63.8182 14.4004 64.1234 14.5268 64.3484 14.7517L72.7484 23.1517C72.9162 23.3196 73.0304 23.5334 73.0767 23.7661C73.123 23.9988 73.0992 24.2401 73.0084 24.4593C72.9176 24.6786 72.7639 24.866 72.5666 24.9978C72.3693 25.1297 72.1373 25.2001 71.9 25.2001H70.7V32.4001C70.7 32.7184 70.5736 33.0236 70.3485 33.2487C70.1235 33.4737 69.8183 33.6001 69.5 33.6001H67.1C66.7818 33.6001 66.4765 33.4737 66.2515 33.2487C66.0264 33.0236 65.9 32.7184 65.9 32.4001V28.8001C65.9 28.4819 65.7736 28.1766 65.5485 27.9516C65.3235 27.7266 65.0183 27.6001 64.7 27.6001H62.3C61.9818 27.6001 61.6765 27.7266 61.4515 27.9516C61.2264 28.1766 61.1 28.4819 61.1 28.8001V32.4001C61.1 32.7184 60.9736 33.0236 60.7485 33.2487C60.5235 33.4737 60.2183 33.6001 59.9 33.6001H57.5C57.1818 33.6001 56.8765 33.4737 56.6515 33.2487C56.4264 33.0236 56.3 32.7184 56.3 32.4001V25.2001H55.1C54.8627 25.2001 54.6308 25.1297 54.4335 24.9978C54.2362 24.866 54.0824 24.6786 53.9916 24.4593C53.9008 24.2401 53.877 23.9988 53.9233 23.7661C53.9696 23.5334 54.0838 23.3196 54.2516 23.1517L62.6516 14.7517Z" fill="#DA0DBF"/>
<path d="M198 14.2472L191.995 14.2472V12.7524C191.995 12.3381 191.659 12.0024 191.245 12.0024C190.83 12.0024 190.495 12.3381 190.495 12.7524V14.2468H184.495V12.7524C184.495 12.3381 184.159 12.0024 183.745 12.0024C183.33 12.0024 182.995 12.3381 182.995 12.7524V14.2468H177C176.172 14.2468 175.5 14.9184 175.5 15.7468V34.4968C175.5 35.3252 176.172 35.9968 177 35.9968H198C198.828 35.9968 199.5 35.3252 199.5 34.4968V15.7468C199.5 14.9188 198.828 14.2472 198 14.2472ZM198 34.4968H177V15.7468H182.995V16.5024C182.995 16.9168 183.33 17.2524 183.745 17.2524C184.159 17.2524 184.495 16.9168 184.495 16.5024V15.7472H190.495V16.5028C190.495 16.9172 190.83 17.2528 191.245 17.2528C191.659 17.2528 191.995 16.9172 191.995 16.5028V15.7472H198V34.4968ZM192.75 23.9972H194.25C194.664 23.9972 195 23.6612 195 23.2472V21.7472C195 21.3332 194.664 20.9972 194.25 20.9972H192.75C192.336 20.9972 192 21.3332 192 21.7472V23.2472C192 23.6612 192.336 23.9972 192.75 23.9972ZM192.75 29.9968H194.25C194.664 29.9968 195 29.6612 195 29.2468V27.7468C195 27.3328 194.664 26.9968 194.25 26.9968H192.75C192.336 26.9968 192 27.3328 192 27.7468V29.2468C192 29.6615 192.336 29.9968 192.75 29.9968ZM188.25 26.9968H186.75C186.336 26.9968 186 27.3328 186 27.7468V29.2468C186 29.6612 186.336 29.9968 186.75 29.9968H188.25C188.664 29.9968 189 29.6612 189 29.2468V27.7468C189 27.3332 188.664 26.9968 188.25 26.9968ZM188.25 20.9972H186.75C186.336 20.9972 186 21.3332 186 21.7472V23.2472C186 23.6612 186.336 23.9972 186.75 23.9972H188.25C188.664 23.9972 189 23.6612 189 23.2472V21.7472C189 21.3328 188.664 20.9972 188.25 20.9972ZM182.25 20.9972H180.75C180.336 20.9972 180 21.3332 180 21.7472V23.2472C180 23.6612 180.336 23.9972 180.75 23.9972H182.25C182.664 23.9972 183 23.6612 183 23.2472V21.7472C183 21.3328 182.664 20.9972 182.25 20.9972ZM182.25 26.9968H180.75C180.336 26.9968 180 27.3328 180 27.7468V29.2468C180 29.6612 180.336 29.9968 180.75 29.9968H182.25C182.664 29.9968 183 29.6612 183 29.2468V27.7468C183 27.3332 182.664 26.9968 182.25 26.9968Z" fill="black"/>
<path d="M312.794 12C313.146 12 313.462 12.2196 313.581 12.5484L314.428 14.8968C314.731 14.972 314.993 15.0488 315.213 15.1272C315.453 15.2128 315.765 15.3448 316.149 15.5232L318.122 14.4792C318.283 14.3935 318.467 14.3625 318.647 14.3908C318.827 14.4192 318.993 14.5054 319.12 14.6364L320.855 16.4304C321.086 16.6692 321.15 17.0184 321.021 17.3232L320.096 19.4916C320.248 19.7732 320.372 20.0148 320.465 20.2164C320.566 20.4348 320.691 20.7388 320.84 21.1284L322.996 22.0524C323.32 22.1904 323.52 22.5144 323.499 22.8612L323.34 25.3512C323.33 25.513 323.272 25.668 323.173 25.7971C323.075 25.9261 322.941 26.0235 322.788 26.0772L320.746 26.8032C320.688 27.0848 320.626 27.3272 320.561 27.5304C320.456 27.8453 320.337 28.1553 320.204 28.4592L321.23 30.7272C321.303 30.8864 321.322 31.065 321.286 31.2363C321.25 31.4077 321.159 31.5628 321.028 31.6788L319.077 33.4212C318.949 33.5359 318.788 33.6085 318.617 33.6291C318.447 33.6497 318.274 33.6173 318.122 33.5364L316.11 32.4708C315.796 32.6381 315.471 32.7852 315.138 32.9112L314.26 33.24L313.48 35.4C313.422 35.5578 313.317 35.6945 313.18 35.7922C313.043 35.89 312.88 35.9444 312.712 35.9484L310.432 36C310.259 36.004 310.09 35.9547 309.946 35.8587C309.802 35.7627 309.692 35.6247 309.629 35.4636L308.71 33.0312C308.397 32.9238 308.086 32.8078 307.779 32.6832C307.528 32.5745 307.28 32.4572 307.037 32.3316L304.757 33.306C304.607 33.3704 304.441 33.3896 304.28 33.3613C304.12 33.3329 303.97 33.2582 303.851 33.1464L302.164 31.5636C302.038 31.4466 301.952 31.2927 301.919 31.124C301.885 30.9552 301.906 30.7802 301.978 30.624L302.958 28.488C302.829 28.2348 302.708 27.977 302.596 27.7152C302.466 27.3946 302.346 27.07 302.236 26.742L300.088 26.088C299.913 26.0352 299.761 25.9263 299.655 25.7781C299.549 25.6299 299.494 25.4507 299.5 25.2684L299.584 22.9632C299.59 22.8129 299.637 22.6671 299.72 22.5415C299.803 22.4159 299.919 22.3153 300.054 22.2504L302.308 21.168C302.412 20.7856 302.504 20.4864 302.584 20.2704C302.697 19.9803 302.823 19.6952 302.961 19.416L301.984 17.352C301.909 17.1954 301.887 17.019 301.919 16.8485C301.951 16.6781 302.037 16.5223 302.164 16.404L303.849 14.8128C303.967 14.7011 304.115 14.6261 304.274 14.5967C304.434 14.5673 304.599 14.5848 304.749 14.6472L307.026 15.588C307.278 15.4208 307.506 15.2832 307.713 15.1752C307.958 15.0456 308.288 14.9072 308.702 14.76L309.494 12.5508C309.553 12.3895 309.66 12.2502 309.801 12.1517C309.942 12.0533 310.109 12.0003 310.281 12H312.794ZM312.206 13.6524H310.87L310.144 15.6852C310.101 15.8034 310.032 15.9104 309.941 15.9983C309.851 16.0861 309.743 16.1526 309.623 16.1928C309.1 16.3668 308.722 16.5168 308.501 16.6332C308.266 16.7572 307.97 16.9452 307.613 17.1972C307.497 17.2791 307.362 17.3302 307.221 17.3457C307.08 17.3613 306.937 17.3407 306.806 17.286L304.61 16.38L303.754 17.1888L304.646 19.0728C304.699 19.1849 304.726 19.3077 304.725 19.4318C304.724 19.556 304.694 19.6782 304.638 19.7892C304.398 20.2704 304.236 20.6256 304.155 20.844C304.029 21.2074 303.921 21.5766 303.831 21.9504C303.801 22.0673 303.745 22.1763 303.669 22.2696C303.592 22.3628 303.496 22.4382 303.387 22.4904L301.239 23.5212L301.196 24.6972L303.14 25.2876C303.398 25.3656 303.602 25.5636 303.687 25.818C303.88 26.3956 304.032 26.818 304.143 27.0852C304.289 27.4233 304.451 27.7544 304.628 28.0776C304.687 28.1888 304.721 28.3123 304.725 28.4385C304.729 28.5647 304.703 28.6901 304.65 28.8048L303.749 30.7704L304.602 31.572L306.741 30.6576C306.856 30.6081 306.981 30.585 307.106 30.59C307.231 30.595 307.354 30.6279 307.464 30.6864C307.904 30.9168 308.228 31.076 308.435 31.164C308.645 31.2516 309.047 31.398 309.63 31.5972C309.746 31.6372 309.851 31.702 309.939 31.787C310.027 31.872 310.095 31.9751 310.139 32.0892L310.989 34.3344L312.1 34.3104L312.816 32.3256C312.858 32.2127 312.923 32.11 313.008 32.0245C313.093 31.9389 313.195 31.8726 313.307 31.83L314.552 31.3644C314.867 31.2484 315.247 31.0644 315.693 30.8124C315.816 30.7429 315.955 30.7055 316.096 30.7038C316.237 30.7022 316.377 30.7362 316.502 30.8028L318.394 31.8048L319.458 30.8556L318.527 28.8C318.479 28.6945 318.454 28.58 318.454 28.4641C318.454 28.3483 318.479 28.2337 318.526 28.128C318.744 27.6396 318.892 27.2712 318.966 27.036C319.041 26.804 319.115 26.474 319.188 26.046C319.214 25.9009 319.277 25.7651 319.372 25.6527C319.467 25.5403 319.591 25.4552 319.73 25.4064L321.707 24.7044L321.794 23.3364L319.85 22.5036C319.746 22.4591 319.653 22.3943 319.576 22.3131C319.498 22.2319 319.437 22.1359 319.397 22.0308C319.259 21.6482 319.108 21.2704 318.944 20.898C318.789 20.5737 318.621 20.2558 318.44 19.9452C318.377 19.8355 318.34 19.7127 318.333 19.5865C318.326 19.4603 318.348 19.3342 318.398 19.218L319.268 17.178L318.351 16.23L316.565 17.1756C316.449 17.2377 316.319 17.2715 316.187 17.2742C316.055 17.2769 315.925 17.2485 315.806 17.1912C315.427 17.0023 315.039 16.8317 314.644 16.68C314.307 16.5663 313.964 16.4742 313.616 16.404C313.478 16.3741 313.35 16.3099 313.243 16.2174C313.137 16.1249 313.055 16.0071 313.006 15.8748L312.206 13.6524ZM311.529 18.7692C314.451 18.7692 316.821 21.1128 316.821 24.0024C316.821 26.892 314.451 29.2344 311.529 29.2344C308.607 29.2344 306.237 26.892 306.237 24.0024C306.237 21.1128 308.606 18.7704 311.529 18.7704M311.529 20.424C309.528 20.424 307.907 22.026 307.907 24.0036C307.907 25.9812 309.528 27.5844 311.529 27.5844C313.529 27.5844 315.149 25.9812 315.149 24.0036C315.149 22.026 313.529 20.424 311.529 20.424Z" fill="black"/>
</svg>
